<svg xmlns="http://www.w3.org/2000/svg" viewBox="0 0 38 38"><defs><clipPath id="z3s0a"><path fill="#fff" d="M19 0c10.493 0 19 8.506 19 19 0 10.493-8.507 19-19 19C8.506 38 0 29.493 0 19 0 8.506 8.506 0 19 0z"/></clipPath></defs><g><g><path fill="none" stroke="#fff" stroke-miterlimit="20" stroke-width="2" d="M19 0c10.493 0 19 8.506 19 19 0 10.493-8.507 19-19 19C8.506 38 0 29.493 0 19 0 8.506 8.506 0 19 0z" clip-path="url(&quot;#z3s0a&quot;)"/></g><g><path fill="#fff" d="M19.16 16c1.333 0 2.414 1.153 2.414 2.575 0 1.423-1.081 2.575-2.415 2.575-1.333 0-2.414-1.152-2.414-2.575 0-1.422 1.081-2.575 2.414-2.575z"/></g><g><path fill="#fff" d="M27.918 16c1.326 0 2.4 1.153 2.4 2.575 0 1.423-1.074 2.575-2.4 2.575-1.326 0-2.401-1.152-2.401-2.575 0-1.422 1.075-2.575 2.401-2.575z"/></g><g><path fill="#fff" d="M10.4 16c1.327 0 2.402 1.153 2.402 2.575 0 1.423-1.075 2.575-2.401 2.575C9.075 21.15 8 19.998 8 18.575 8 17.153 9.075 16 10.4 16z"/></g></g></svg>