<svg fill="#303030" enable-background="new 0 0 512 512" viewBox="0 0 512 512" xmlns="http://www.w3.org/2000/svg"><g><path d="m75 282c-8.284 0-15 6.716-15 15s6.716 15 15 15h260c8.284 0 15-6.716 15-15s-6.716-15-15-15z"/><path d="m335 352h-260c-8.284 0-15 6.716-15 15s6.716 15 15 15h260c8.284 0 15-6.716 15-15s-6.716-15-15-15z"/><path d="m497 100h-5v-25c0-41.355-33.645-75-75-75s-75 33.645-75 75c0 8.284 6.716 15 15 15s15-6.716 15-15c0-24.813 20.187-45 45-45s45 20.187 45 45v25h-125c-8.284 0-15 6.716-15 15v27h-307c-8.284 0-15 6.716-15 15v340c0 6.067 3.655 11.537 9.26 13.858 1.856.769 3.805 1.142 5.737 1.142 3.904 0 7.741-1.524 10.61-4.394l55.607-55.606h313.786c8.284 0 15-6.716 15-15v-167h87c8.284 0 15-6.716 15-15v-140c0-8.284-6.716-15-15-15zm-117 322h-305c-3.978 0-7.793 1.581-10.606 4.394l-34.394 34.393v-288.787h292v40h-247c-8.284 0-15 6.716-15 15s6.716 15 15 15h247v13c0 8.284 6.716 15 15 15h43zm102-182h-130v-110h130z"/><path d="m432 150h-30c-8.284 0-15 6.716-15 15s6.716 15 15 15v25c0 8.284 6.716 15 15 15s15-6.716 15-15v-25c8.284 0 15-6.716 15-15s-6.716-15-15-15z"/><path d="m55 110c25.127 0 46.356-16.943 52.904-40h72.096v15c0 8.284 6.716 15 15 15s15-6.716 15-15v-15h20v25.989c0 8.284 6.716 15 15 15s15-6.716 15-15v-25.989h15c8.284 0 15-6.716 15-15s-6.716-15-15-15h-167.096c-6.547-23.057-27.777-40-52.904-40-30.327 0-55 24.673-55 55s24.673 55 55 55zm0-80c13.785 0 25 11.215 25 25s-11.215 25-25 25-25-11.215-25-25 11.215-25 25-25z"/></g></svg>