<?xml version="1.0" encoding="iso-8859-1"?>
<!-- Generator: Adobe Illustrator 19.0.0, SVG Export Plug-In . SVG Version: 6.00 Build 0)  -->
<svg fill="#303030" version="1.1" xmlns="http://www.w3.org/2000/svg" xmlns:xlink="http://www.w3.org/1999/xlink" x="0px" y="0px"
	 viewBox="0 0 512 512" style="enable-background:new 0 0 512 512;" xml:space="preserve">
<g>
	<g>
		<path d="M340.898,105.203c-46.812-46.813-122.984-46.813-169.796,0c-46.813,46.813-46.813,122.983,0,169.797
			c23.406,23.406,54.151,35.11,84.897,35.11c30.745,0,61.492-11.703,84.898-35.11C387.711,228.187,387.711,152.017,340.898,105.203z
			 M319.673,126.428c13.731,13.731,22.067,30.833,25.057,48.666h-36.338c-1.966-24.573-8.744-48.023-19.817-68.913
			C299.912,110.562,310.542,117.297,319.673,126.428z M192.326,253.776c-13.73-13.731-22.066-30.833-25.057-48.666h36.334
			c1.965,24.573,8.743,48.023,19.816,68.912C212.083,269.64,201.457,262.907,192.326,253.776z M203.603,175.093h-36.334
			c2.992-17.832,11.327-34.934,25.057-48.665c9.133-9.132,19.76-15.867,31.094-20.248
			C212.347,127.07,205.569,150.52,203.603,175.093z M255.998,270.275c-12.643-19.502-20.084-42.061-22.328-65.165h44.656
			C276.082,228.214,268.641,250.772,255.998,270.275z M233.67,175.094c2.244-23.103,9.685-45.662,22.328-65.164
			c12.642,19.502,20.084,42.061,22.328,65.164H233.67z M319.673,253.776c-9.133,9.133-19.762,15.866-31.099,20.248
			c11.073-20.89,17.851-44.341,19.817-68.915h36.338C341.74,222.942,333.404,240.044,319.673,253.776z"/>
	</g>
</g>
<g>
	<g>
		<rect x="152.191" y="391.97" width="207.421" height="30.016"/>
	</g>
</g>
<g>
	<g>
		<path d="M60.888,0v512h390.225V0H60.888z M421.096,481.984H90.904V30.016h330.193V481.984z"/>
	</g>
</g>
<g>
</g>
<g>
</g>
<g>
</g>
<g>
</g>
<g>
</g>
<g>
</g>
<g>
</g>
<g>
</g>
<g>
</g>
<g>
</g>
<g>
</g>
<g>
</g>
<g>
</g>
<g>
</g>
<g>
</g>
</svg>
