<?xml version="1.0" encoding="utf-8"?>
<!-- Generator: Adobe Illustrator 23.0.3, SVG Export Plug-In . SVG Version: 6.00 Build 0)  -->
<svg fill="#303030" version="1.1" id="Слой_1" xmlns="http://www.w3.org/2000/svg" xmlns:xlink="http://www.w3.org/1999/xlink" x="0px" y="0px"
	 viewBox="0 0 662 552" style="enable-background:new 0 0 662 552;" xml:space="preserve">
<style type="text/css">
	.st0{fill:#FFFFFF;}
</style>
<path d="M401.4,505.2l-262.7,45.9c-31.9,5.6-62.3-15.8-67.9-47.7L2.9,114.7c-5.6-31.9,15.8-62.3,47.7-67.9L313.3,0.9
	c31.9-5.6,62.3,15.8,67.9,47.7l67.9,388.8C454.7,469.2,433.3,499.7,401.4,505.2z M56.1,78.3c-14.5,2.5-24.2,16.4-21.7,30.9
	l67.9,388.8c2.5,14.5,16.4,24.2,30.9,21.7l262.7-45.9c14.5-2.5,24.2-16.4,21.7-30.9L349.6,54.1c-2.5-14.5-16.4-24.2-30.9-21.7
	L56.1,78.3z"/>
<path d="M226,276c-34.8,6.1-68-17.3-74.1-52c-6.1-34.8,17.3-68,52-74.1c34.8-6.1,68,17.3,74.1,52S260.8,269.9,226,276z M209.5,181.4
	c-17.4,3-29.1,19.6-26,37s19.6,29.1,37,26s29.1-19.6,26-37S226.9,178.4,209.5,181.4z"/>
<path d="M337.3,386.5l-178.6,31.2c-8.7,1.5-17-4.3-18.5-13l-5.5-31.5c-5.6-31.9,15.8-62.3,47.7-67.9l94.6-16.5
	c31.9-5.6,62.3,15.8,67.9,47.7l5.5,31.5C351.9,376.7,346,385,337.3,386.5z M169,383.4l147.1-25.7l-2.8-15.8
	c-2.5-14.5-16.4-24.2-30.9-21.7l-94.6,16.5c-14.5,2.5-24.2,16.4-21.7,30.9L169,383.4z"/>
<rect x="304" y="54.1" class="st0" width="336" height="458"/>
<path d="M603.3,539.1H336.7c-32.4,0-58.7-26.3-58.7-58.7V85.7c0-32.4,26.3-58.7,58.7-58.7h266.7c32.4,0,58.7,26.3,58.7,58.7v394.7
	C662,512.7,635.7,539.1,603.3,539.1z M336.7,59.1C322,59.1,310,71,310,85.7v394.7c0,14.7,12,26.7,26.7,26.7h266.7
	c14.7,0,26.7-12,26.7-26.7V85.7c0-14.7-12-26.7-26.7-26.7H336.7z"/>
<path d="M470,283.1c-35.3,0-64-28.7-64-64s28.7-64,64-64s64,28.7,64,64S505.3,283.1,470,283.1z M470,187.1c-17.6,0-32,14.4-32,32
	s14.4,32,32,32s32-14.4,32-32S487.6,187.1,470,187.1z"/>
<path d="M560.7,411.1H379.3c-8.8,0-16-7.2-16-16v-32c0-32.4,26.3-58.7,58.7-58.7h96c32.4,0,58.7,26.3,58.7,58.7v32
	C576.7,403.9,569.5,411.1,560.7,411.1z M395.3,379.1h149.3v-16c0-14.7-12-26.7-26.7-26.7h-96c-14.7,0-26.7,12-26.7,26.7V379.1z"/>
</svg>
