<svg fill="#303030" enable-background="new 0 0 512 512" viewBox="0 0 512 512" xmlns="http://www.w3.org/2000/svg"><g><path d="m346 320h-25v-30.185c26.949-18.533 45.639-48.24 49.326-82.383l14.101-2.82c21.192-4.238 36.573-23 36.573-44.612 0-19.304-12.276-36.325-30-42.762v-22.238c0-52.383-42.617-95-95-95h-80c-52.383 0-95 42.617-95 95v22.238c-17.723 6.437-30 23.458-30 42.762 0 21.612 15.381 40.374 36.573 44.611l14.101 2.82c3.687 34.143 22.377 63.85 49.326 82.383v30.186h-25c-57.897 0-105 47.103-105 105v72c0 8.284 6.716 15 15 15h360c8.284 0 15-6.716 15-15v-72c0-57.897-47.103-105-105-105zm-90.141 162-28.154-65.156 28.295-22.635 28.295 22.635-28.154 65.156zm-55.121-132 31.25 25-16.619 13.295-16.547-38.295zm95.893 38.295-16.62-13.295 31.25-25h1.917zm81.913-213.101-7.544 1.509v-33.406l7.544 1.509c7.218 1.444 12.456 7.833 12.456 15.194s-5.238 13.75-12.456 15.194zm-162.544-145.194h80c35.841 0 65 29.159 65 65v15.703c-1.516-.315-3.444-.716-5-.703h-63.819c-17.959 0-35.113-8.577-45.889-22.944l-8.292-11.056c-3.12-4.16-8.174-6.403-13.347-5.939-5.178.467-9.744 3.582-12.069 8.231-9.78 19.558-29.438 31.708-51.305 31.708-2.014.047-6.303-.174-8.22.292l-.001-.001-2.058.412v-15.703c0-35.841 29.159-65 65-65zm-82.544 145.194c-7.217-1.444-12.456-7.833-12.456-15.194s5.239-13.75 12.457-15.194l7.543-1.508v33.405zm37.544 19.806v-55.53c21.78-2.392 41.536-12.759 55.763-28.937 16.468 18.566 40.432 29.467 65.418 29.467h48.819v55c0 46.869-38.131 85-85 85s-85-38.131-85-85zm85 115c12.2 0 23.959-1.917 35-5.452v23.243l-35 28-35-28v-23.243c11.041 3.535 22.8 5.452 35 5.452zm-165 115c0-35.519 24.827-65.328 58.033-73.041l-26.056 45.599c-3.753 6.568-2.028 14.903 4.023 19.442l32.748 24.561-6.522 40.439h-62.226zm92.613 57 7.195-44.611c.888-5.503-1.35-11.044-5.809-14.389l-29.407-22.055 18.541-32.446 49.045 113.501zm105.209 0 49.044-113.501 18.54 32.446-29.406 22.055c-4.459 3.344-6.696 8.886-5.809 14.389l7.196 44.611zm132.178 0h-62.226l-6.522-40.439 32.748-24.561c6.052-4.539 7.777-12.874 4.023-19.442l-26.056-45.599c33.206 7.713 58.033 37.522 58.033 73.041z"/><path d="m256 249.963c14.706 0 29.411-5.598 40.606-16.793 5.858-5.858 5.858-15.355 0-21.213-5.857-5.858-15.355-5.858-21.213 0-10.693 10.693-28.094 10.693-38.787 0-5.857-5.858-15.355-5.858-21.213 0s-5.858 15.355 0 21.213c11.196 11.195 25.901 16.793 40.607 16.793z"/></g></svg>