<svg fill="#303030" enable-background="new 0 0 512 512" viewBox="0 0 512 512" xmlns="http://www.w3.org/2000/svg"><g><path d="m256.229 329.767c57.556 0 104.381-46.825 104.381-104.381 0-58.139-47.646-104.69-104.647-104.377-57.434.144-104.115 46.911-104.115 104.377 0 58.228 47.506 104.381 104.381 104.381zm-72.86-89.381h24.725c1.014 16.863 3.753 33.51 8.33 47.785-16.719-10.637-28.936-27.745-33.055-47.785zm72.727-89.17c5.078 3.144 15.592 23.15 17.965 59.17h-35.93c2.373-36.02 12.887-56.027 17.965-59.17zm17.965 89.17c-2.373 36.021-12.888 56.027-17.965 59.17-5.078-3.144-15.592-23.15-17.965-59.17zm21.639 48c4.618-14.323 7.379-31.053 8.398-48h24.992c-4.148 20.174-16.499 37.379-33.39 48zm33.389-78h-24.992c-1.019-16.947-3.78-33.677-8.398-48 16.892 10.621 29.243 27.826 33.39 48zm-112.666-47.785c-4.576 14.275-7.316 30.922-8.33 47.785h-24.725c4.12-20.04 16.337-37.148 33.055-47.785z"/><path d="m346 361.95h-180c-8.284 0-15 6.716-15 15s6.716 15 15 15h180c8.284 0 15-6.716 15-15s-6.716-15-15-15z"/><path d="m346 61h-180c-8.284 0-15 6.716-15 15s6.716 15 15 15h180c8.284 0 15-6.716 15-15s-6.716-15-15-15z"/><path d="m346 421.657h-180c-8.284 0-15 6.716-15 15s6.716 15 15 15h180c8.284 0 15-6.716 15-15s-6.716-15-15-15z"/><path d="m406 0h-330c-8.284 0-15 6.716-15 15v482c0 8.284 6.716 15 15 15h330c24.813 0 45-20.187 45-45v-422c0-24.813-20.187-45-45-45zm15 467c0 8.271-6.729 15-15 15h-315v-452h315c8.271 0 15 6.729 15 15z"/></g></svg>